<?xml version="1.0" standalone="no"?>
<svg viewBox="0 0 200 200" xmlns="http://www.w3.org/2000/svg">
  <path fill="#F6E8B1" d="M38,-66.2C52,-57.7,68.1,-53.1,77.8,-42.8C87.6,-32.4,91,-16.2,88,-1.7C85,12.8,75.6,25.5,67.8,39.2C60,53,53.8,67.7,42.8,75.8C31.7,83.9,15.9,85.4,1.9,82.1C-12,78.7,-23.9,70.4,-35.1,62.4C-46.3,54.4,-56.8,46.6,-64.4,36.2C-72,25.9,-76.8,12.9,-78.6,-1C-80.4,-15,-79.2,-30,-72.2,-41.5C-65.2,-52.9,-52.4,-60.7,-39.4,-69.8C-26.4,-78.9,-13.2,-89.3,-0.6,-88.3C12,-87.2,23.9,-74.7,38,-66.2Z" transform="translate(100 100)" />
</svg>
